<?xml version="1.0" encoding="UTF-8" standalone="no"?>
<!-- Created with Inkscape (http://www.inkscape.org/) -->

<svg
   width="89.699814mm"
   height="95.248039mm"
   viewBox="0 0 89.699814 95.248039"
   version="1.1"
   id="svg5"
   xml:space="preserve"
   xmlns:inkscape="http://www.inkscape.org/namespaces/inkscape"
   xmlns:sodipodi="http://sodipodi.sourceforge.net/DTD/sodipodi-0.dtd"
   xmlns="http://www.w3.org/2000/svg"
   xmlns:svg="http://www.w3.org/2000/svg"><sodipodi:namedview
     id="namedview7"
     pagecolor="#ffffff"
     bordercolor="#000000"
     borderopacity="0.25"
     inkscape:showpageshadow="2"
     inkscape:pageopacity="0.0"
     inkscape:pagecheckerboard="0"
     inkscape:deskcolor="#d1d1d1"
     inkscape:document-units="mm"
     showgrid="false" /><defs
     id="defs2" /><g
     inkscape:label="Layer 1"
     inkscape:groupmode="layer"
     id="layer1"
     transform="translate(-16.824324,-111.27462)"><g
       style="fill:none;stroke:#01c38d;stroke-width:3.79614;stroke-dasharray:none"
       id="g1825"
       transform="matrix(0.18466147,0,0,0.18466147,14.400511,111.62512)"
       inkscape:export-filename="g1825.svg"
       inkscape:export-xdpi="96"
       inkscape:export-ydpi="96"><g
         id="SVGRepo_bgCarrier"
         stroke-width="0"
         style="fill:none;stroke-width:3.79614;stroke-dasharray:none" /><g
         id="SVGRepo_tracerCarrier"
         stroke-linecap="round"
         stroke-linejoin="round"
         style="fill:none;stroke-width:3.79614;stroke-dasharray:none" /><g
         id="SVGRepo_iconCarrier"
         style="fill:none;stroke-width:3.79614;stroke-dasharray:none"> <style
   type="text/css"
   id="style1777"> .st0{fill:#000000;} </style> <g
   id="g1801"
   style="fill:none;stroke-width:3.79614;stroke-dasharray:none"> <path
   class="st0"
   d="m 170.668,228.138 c 0,-3.863 -3.135,-6.982 -6.982,-6.982 -3.863,0 -6.982,3.12 -6.982,6.982 0,3.864 3.119,6.983 6.982,6.983 3.847,-0.001 6.982,-3.12 6.982,-6.983 z"
   id="path1779"
   style="fill:none;stroke-width:3.79614;stroke-dasharray:none" /> <path
   class="st0"
   d="m 348.314,235.12 c 3.863,0 6.982,-3.119 6.982,-6.983 0,-3.863 -3.119,-6.982 -6.982,-6.982 -3.847,0 -6.982,3.12 -6.982,6.982 0,3.864 3.135,6.983 6.982,6.983 z"
   id="path1781"
   style="fill:none;stroke-width:3.79614;stroke-dasharray:none" /> <path
   class="st0"
   d="m 193.784,206.431 c -4.987,3.349 -10.054,6.357 -15.374,8.708 v 24.414 c 4.734,0.333 9.927,0.586 15.374,0.752 z"
   id="path1783"
   style="fill:none;stroke-width:3.79614;stroke-dasharray:none" /> <path
   class="st0"
   d="m 265.302,177.337 c -2.375,-0.396 -4.814,-0.593 -7.315,-0.593 -2.47,0 -4.892,0.198 -7.283,0.593 v 63.182 h 14.598 z"
   id="path1785"
   style="fill:none;stroke-width:3.79614;stroke-dasharray:none" /> <path
   class="st0"
   d="m 231.134,184.288 c -5.019,2.715 -9.832,5.898 -14.566,9.238 v 46.707 c 5.051,0.119 9.943,0.159 14.566,0.206 z"
   id="path1787"
   style="fill:none;stroke-width:3.79614;stroke-dasharray:none" /> <path
   class="st0"
   d="m 333.59,215.851 c -5.019,-2.232 -9.832,-5.09 -14.566,-8.281 v 32.189 c 5.13,-0.158 10.07,-0.396 14.566,-0.72 z"
   id="path1789"
   style="fill:none;stroke-width:3.79614;stroke-dasharray:none" /> <path
   class="st0"
   d="m 299.438,193.527 c -4.734,-3.341 -9.58,-6.563 -14.598,-9.238 v 56.152 c 4.608,-0.047 9.547,-0.087 14.598,-0.206 z"
   id="path1791"
   style="fill:none;stroke-width:3.79614;stroke-dasharray:none" /> <path
   class="st0"
   d="m 415.351,497.6 -0.57,0.079 c -0.032,0 -0.079,0.008 -0.111,0.016 z"
   id="path1793"
   style="fill:none;stroke-width:3.79614;stroke-dasharray:none" /> <path
   class="st0"
   d="m 496.797,469.528 -1.125,-6.294 c -3.277,-18.572 -9.547,-31.911 -14.772,-40.422 0.459,-0.198 0.966,-0.435 1.409,-0.626 l 0.348,-0.142 3.783,-1.623 5.131,-2.209 -3.895,-9.009 -0.095,-0.222 c -10.196,-23.686 -26.52,-37.659 -42.354,-45.076 -15.817,-7.457 -30.969,-8.779 -40.248,-8.795 h -0.015 c -2.787,0 -5.066,0.126 -6.698,0.261 -0.808,0.064 -1.472,0.136 -1.932,0.19 l -0.57,0.063 -0.158,0.016 -0.048,0.007 v 0.008 l -1.171,0.158 -1.362,0.206 -10.814,7.901 h -9.896 c -0.11,-6 -2.628,-11.479 -6.492,-15.69 l -0.19,-0.206 0.19,0.221 c -3.894,-4.274 -8.977,-7.465 -14.883,-9.966 l -0.015,-0.008 c -0.586,-0.237 -1.726,-1.045 -3.056,-3.143 l -0.032,-0.056 c -1.94,-3 -3.816,-8.597 -4.861,-14.614 -1.093,-6.072 -1.536,-12.682 -1.536,-18.12 v -0.016 -0.032 c 0,-1.338 0.048,-2.542 0.095,-3.698 1.505,-2.335 3.025,-4.686 4.592,-7.132 6.824,-10.68 13.87,-22.523 19.174,-36.02 4.434,-2.922 7.711,-7.038 9.358,-11.67 1.836,-5.042 2.09,-10.03 2.106,-14.898 v -0.024 -0.032 c -0.064,-6.048 0.015,-12.856 -3.342,-19.665 l -0.016,-0.047 c -1.393,-2.731 -3.444,-5.241 -6.064,-7.228 -1.931,-27.803 -12.793,-54.624 -30.906,-75.246 -6.555,-7.466 -14.122,-14.02 -22.466,-19.546 0.142,-0.253 0.332,-0.483 0.475,-0.736 2.612,-4.75 3.625,-9.682 3.625,-14.138 -0.016,-5.241 -1.33,-9.785 -3.072,-13.332 l -0.016,-0.024 c -0.159,-0.317 -0.365,-0.538 -0.523,-0.831 1.568,-3.65 2.676,-7.869 2.66,-12.603 0.016,-7.837 -2.977,-16.086 -8.993,-24.447 -0.206,-6.127 -2.288,-11.772 -5.368,-16.553 l 0.241,0.358 -0.269,-0.412 -0.016,-0.023 C 297.791,16.79 290.507,10.932 282.417,6.745 L 282.401,6.737 C 274.279,2.572 265.16,0.024 256.008,0 h -0.032 C 243.8,0.055 231.625,4.488 221.824,11.487 l -0.016,0.008 c -4.892,3.531 -9.263,7.798 -12.54,12.857 -3.103,4.789 -5.193,10.449 -5.399,16.608 -6.016,8.368 -9.008,16.609 -8.992,24.462 -0.016,4.718 1.06,8.946 2.628,12.618 -2.043,3.753 -3.531,8.527 -3.578,14.14 v 0.032 c 0,4.457 1.013,9.389 3.625,14.147 0.143,0.253 0.332,0.482 0.475,0.728 -8.344,5.526 -15.912,12.081 -22.483,19.546 -18.128,20.662 -29.006,47.538 -30.906,75.381 -1.742,1.338 -3.309,2.818 -4.528,4.552 -2.596,3.744 -3.704,7.806 -4.259,11.471 v 0.016 c -0.554,3.704 -0.618,7.307 -0.618,10.806 v 0.024 c 0.016,3.23 0.127,6.524 0.744,9.888 0.602,3.348 1.774,6.792 3.848,9.998 l 0.016,0.016 c 1.758,2.7 4.148,4.964 6.904,6.769 5.288,13.442 12.318,25.254 19.126,35.91 1.552,2.43 3.072,4.773 4.56,7.093 0.048,1.195 0.111,2.367 0.111,3.728 v 0.063 c 0.016,7.252 -0.808,16.61 -2.819,23.924 -0.997,3.658 -2.311,6.832 -3.594,8.859 -1.314,2.074 -2.438,2.881 -3.04,3.135 l -0.048,0.016 c -5.89,2.501 -10.972,5.692 -14.867,9.974 v -0.023 c -3.863,4.211 -6.396,9.698 -6.507,15.69 h -9.88 l -10.814,-7.901 -2.455,-0.356 -0.063,-0.008 h -0.015 v -0.008 c -0.475,-0.055 -4.006,-0.546 -9.405,-0.538 h -0.016 c -9.279,0.016 -24.43,1.338 -40.248,8.795 l -0.712,0.341 0.666,-0.317 c -15.834,7.434 -32.11,21.399 -42.306,45.053 l -1.773,4.093 -2.217,5.13 7.964,3.428 1.283,0.554 c 0.46,0.19 0.966,0.42 1.425,0.626 -5.224,8.51 -11.494,21.858 -14.772,40.43 l -0.506,2.786 -0.618,3.5 5.384,3.776 -0.127,-0.095 c 21.296,14.733 51.569,21.034 76.869,24.486 h 0.016 c 21.976,2.889 40.106,3.278 44.697,3.324 7.077,1.639 48.338,10.949 90.185,10.98 7.979,0 15.959,-0.372 23.765,-1.195 7.822,0.823 15.801,1.195 23.766,1.195 41.862,-0.032 83.124,-9.341 90.2,-10.98 4.592,-0.047 22.72,-0.435 44.697,-3.324 l 0.126,-0.016 c 25.27,-3.451 55.48,-9.753 76.743,-24.462 l 2.359,-1.647 z m -107.254,-93.019 9.073,-6.618 c 1.203,-0.119 3.388,-0.285 6.349,-0.285 7.884,0 20.963,1.196 34.072,7.41 12.208,5.803 24.478,15.881 33.281,33.717 -31.444,13.798 -78.849,37.627 -97.563,47.126 z M 209.585,86.235 c 1.299,1.409 2.581,2.707 3.689,3.784 1.631,1.535 2.992,2.81 3.484,3.427 l 6.856,-5.7 c -1.204,-1.433 -2.613,-2.684 -4.18,-4.18 -2.328,-2.217 -4.908,-4.837 -6.84,-7.862 -1.932,-3.04 -3.23,-6.349 -3.23,-10.283 0,-3.183 0.902,-6.983 3.372,-11.495 1.124,2.003 2.438,3.974 4.148,5.859 l 6.602,-6.001 c -3.848,-4.283 -5.193,-8.146 -5.208,-11.859 0,-3.214 1.076,-6.476 3.166,-9.698 3.103,-4.829 8.486,-9.381 14.772,-12.602 6.27,-3.239 13.41,-5.146 19.775,-5.131 8.502,-0.039 18.35,3.412 25.728,8.756 3.689,2.652 6.761,5.756 8.835,8.977 2.074,3.222 3.166,6.484 3.166,9.698 -0.032,3.706 -1.362,7.576 -5.209,11.859 l 6.586,6.001 c 1.726,-1.885 3.024,-3.856 4.164,-5.859 2.47,4.512 3.357,8.312 3.357,11.495 0,5.216 -2.296,9.46 -5.336,13.173 -1.52,1.844 -3.183,3.49 -4.734,4.972 -1.552,1.496 -2.961,2.746 -4.18,4.18 l 6.856,5.7 c 0.507,-0.618 1.852,-1.892 3.483,-3.427 1.124,-1.077 2.391,-2.336 3.689,-3.745 l 0.269,0.626 c 0.538,1.512 0.903,3.364 0.903,5.312 0,2.303 -0.491,4.71 -1.821,7.156 -0.902,1.615 -2.232,3.253 -4.069,4.876 -11.304,-5.248 -23.798,-8.439 -37.224,-9.017 V 29.924 h -8.914 v 65.303 c -13.442,0.578 -25.934,3.769 -37.24,9.017 -1.836,-1.623 -3.166,-3.261 -4.053,-4.876 -1.346,-2.438 -1.836,-4.853 -1.836,-7.156 0.003,-2.249 0.525,-4.362 1.174,-5.977 z m -23.148,49.968 c 17.163,-19.474 41.071,-32.172 69.555,-32.188 28.468,0.016 52.391,12.714 69.57,32.188 15.865,18.034 25.65,41.918 27.392,66.46 l -1.046,-0.143 h -0.095 -0.11 c -6.016,0.008 -12.208,-2.32 -18.889,-6.23 -10.038,-5.834 -20.821,-15.065 -33.202,-22.998 -12.382,-7.9 -26.631,-14.542 -43.62,-14.542 -11.305,-0.008 -21.454,2.952 -30.574,7.259 -13.695,6.476 -25.27,15.92 -35.909,23.48 -5.32,3.792 -10.386,7.109 -15.247,9.421 -4.861,2.311 -9.452,3.61 -13.965,3.61 h -0.126 -0.08 l -1.06,0.143 c 1.757,-24.55 11.526,-48.426 27.406,-66.46 z M 150.94,238.786 c -0.871,-2.311 -1.235,-5.653 -1.219,-9.919 -0.047,-5.859 0.38,-10.616 1.757,-13.134 0.681,-1.282 1.425,-2.098 2.708,-2.842 1.299,-0.721 3.294,-1.314 6.318,-1.465 v -0.016 c 8.264,-0.056 15.881,-3.167 23.18,-7.418 11.051,-6.484 21.77,-15.722 33.502,-23.18 11.732,-7.48 24.225,-13.149 38.807,-13.149 9.753,0.008 18.508,2.509 26.773,6.412 12.414,5.834 23.592,14.859 34.548,22.68 5.494,3.911 10.924,7.513 16.592,10.204 5.573,2.652 11.416,4.418 17.575,4.457 v 0.008 c 3.04,0.151 5.035,0.752 6.318,1.465 0.982,0.554 1.631,1.163 2.185,1.963 0.84,1.187 1.473,2.961 1.837,5.368 0.38,2.399 0.459,5.351 0.459,8.645 0.032,5.731 -0.649,9.642 -2.232,11.962 -0.808,1.195 -1.837,2.193 -3.546,3.143 -1.726,0.934 -4.164,1.781 -7.505,2.382 -9.199,1.671 -27.391,3.309 -45.71,4.489 -18.334,1.188 -36.954,1.94 -47.293,1.94 -10.339,0 -28.959,-0.752 -47.294,-1.94 -18.303,-1.18 -36.511,-2.818 -45.709,-4.489 -3.326,-0.602 -5.764,-1.448 -7.49,-2.382 -2.566,-1.456 -3.659,-2.881 -4.561,-5.184 z m 15.769,112.834 c 4.18,-1.774 7.315,-5.012 9.674,-8.764 3.546,-5.66 5.589,-12.674 6.887,-19.854 0.712,-3.95 1.156,-7.94 1.425,-11.78 1.916,3.419 3.721,6.8 5.146,10.125 l 8.185,-3.531 c -3.484,-8.059 -8.249,-15.88 -13.316,-23.813 l -0.032,-0.364 -0.19,0.016 c -2.106,-3.302 -4.259,-6.618 -6.412,-9.999 -5.748,-8.978 -11.4,-18.327 -15.88,-28.404 10.164,1.75 27.85,3.309 45.931,4.489 16.134,1.045 32.411,1.758 43.414,1.916 v 88.546 h 8.914 v -88.546 c 11.004,-0.158 27.265,-0.871 43.398,-1.916 18.082,-1.18 35.783,-2.739 45.948,-4.489 -4.481,10.077 -10.133,19.427 -15.881,28.404 -2.153,3.38 -4.307,6.697 -6.412,9.999 l -0.191,-0.016 v -0.008 l -0.032,0.372 c -5.066,7.94 -9.832,15.754 -13.315,23.813 l 8.185,3.531 c 1.441,-3.332 3.23,-6.729 5.161,-10.156 0.444,6.166 1.315,12.745 2.977,18.904 1.267,4.615 2.945,8.993 5.32,12.769 2.359,3.744 5.494,6.982 9.674,8.756 l 0.824,0.388 c -2.058,2.026 -5.209,4.608 -9.278,7.339 -15.881,10.655 -45.346,23.686 -81.113,23.67 h -0.76 c -23.861,0 -44.871,-5.763 -60.973,-12.793 -8.043,-3.515 -14.852,-7.339 -20.14,-10.877 -3.799,-2.55 -6.792,-4.964 -8.85,-6.919 0.572,-0.278 1.095,-0.547 1.712,-0.808 z m -9.816,6.38 0.555,-0.546 c 2.691,2.818 6.444,5.937 11.431,9.286 17.242,11.542 48.117,25.166 86.085,25.19 h 0.76 c 25.301,0 47.483,-6.088 64.551,-13.537 8.518,-3.721 15.77,-7.79 21.517,-11.653 5.384,-3.61 9.373,-6.967 12.065,-9.944 l 1.251,1.204 c 1.995,2.225 2.755,4.22 2.771,6.381 0,2.399 -1.061,5.439 -4.085,9.048 -2.993,3.586 -7.869,7.576 -14.741,11.614 -10.941,6.428 -27.059,12.112 -42.765,16.07 -15.658,3.966 -31.064,6.254 -40.295,6.239 -9.231,0.015 -24.636,-2.272 -40.295,-6.239 -15.69,-3.958 -31.824,-9.642 -42.749,-16.07 -6.887,-4.03 -11.748,-8.027 -14.741,-11.605 -3.024,-3.61 -4.085,-6.65 -4.085,-9.049 0.015,-2.169 0.775,-4.164 2.77,-6.389 z m -83.931,19.016 c 13.11,-6.214 26.188,-7.41 34.073,-7.41 2.359,0 4.244,0.103 5.526,0.206 l 0.839,0.08 9.056,6.618 14.788,81.35 C 118.529,448.361 71.125,424.532 39.68,410.734 48.484,392.897 60.754,382.819 72.962,377.016 Z m 65.818,109.438 c -8.359,-0.206 -27.644,-1.076 -48.845,-4.497 -20.915,-3.332 -43.541,-9.357 -58.756,-19.11 2.771,-13.719 7.283,-23.908 11.194,-30.7 2.09,-3.626 3.989,-6.294 5.351,-8.028 16.91,7.726 36.511,17.25 53.357,25.587 11.258,5.573 21.296,10.615 28.5,14.265 4.085,2.066 7.22,3.658 9.198,4.679 v 17.804 z m 225.525,-13.236 v 14.234 c -11.098,2.478 -48.211,10.07 -84.548,10.062 -6.54,0 -13,-0.324 -19.301,-0.879 V 449.2 h -8.914 v 47.435 c -6.317,0.554 -12.777,0.879 -19.301,0.879 -21.738,0 -43.778,-2.715 -60.355,-5.422 -8.281,-1.362 -15.2,-2.724 -20.044,-3.744 -1.662,-0.357 -2.993,-0.641 -4.149,-0.895 v -14.234 l 1.552,0.791 -17.384,-95.6 h 18.952 l 0.554,0.752 c 3.926,4.679 9.579,9.176 17.067,13.577 12.192,7.125 28.833,12.904 45.077,17.013 16.26,4.1 31.951,6.499 42.48,6.515 10.528,-0.016 26.235,-2.415 42.496,-6.515 16.245,-4.109 32.885,-9.888 45.061,-17.013 7.505,-4.401 13.157,-8.906 17.084,-13.585 l 0.538,-0.744 h 18.968 l -17.385,95.6 z m 48.45,10.101 c -12.144,1.607 -23.18,2.414 -31.159,2.818 -3.42,0.174 -6.239,0.269 -8.376,0.324 V 468.65 c 1.979,-1.022 5.114,-2.613 9.198,-4.679 18.018,-9.12 53.659,-26.956 81.857,-39.852 3.879,4.948 12.286,17.615 16.546,38.704 -17.512,11.249 -44.823,17.48 -68.066,20.496 z"
   id="path1795"
   style="fill:none;stroke-width:3.79614;stroke-dasharray:none" /> <path
   class="st0"
   d="m 373.378,209.044 0.032,0.063 c 0,0 0.008,0.023 0.016,0.032 z"
   id="path1797"
   style="fill:none;stroke-width:3.79614;stroke-dasharray:none" /> <polygon
   class="st0"
   points="374.676,243.757 374.661,243.772 374.661,243.797 "
   id="polygon1799"
   style="fill:none;stroke-width:3.79614;stroke-dasharray:none" /> </g> </g></g></g></svg>
